<svg xmlns="http://www.w3.org/2000/svg" viewBox="0 0 32 32" width="32" height="32">
  <defs>
    <linearGradient id="globeGradient" x1="0%" y1="0%" x2="100%" y2="100%">
      <stop offset="0%" style="stop-color:#39EFD7;stop-opacity:1" />
      <stop offset="100%" style="stop-color:#2BCFC0;stop-opacity:1" />
    </linearGradient>
  </defs>
  
  <!-- Globe Background Circle -->
  <circle cx="16" cy="16" r="14" fill="url(#globeGradient)" stroke="#39EFD7" stroke-width="1"/>
  
  <!-- North America -->
  <path d="M 8 8 Q 10 6, 12 7 Q 14 8, 15 10 Q 16 12, 15 14 Q 14 16, 12 17 Q 10 18, 8 17 Q 7 15, 8 13 Q 9 11, 8 8" fill="#2BCFC0" opacity="0.8"/>
  
  <!-- South America -->
  <path d="M 12 18 Q 13 17, 14 18 Q 15 19, 15 21 Q 14 23, 13 24 Q 12 25, 11 24 Q 10 23, 11 21 Q 12 19, 12 18" fill="#2BCFC0" opacity="0.8"/>
  
  <!-- Simple Grid Lines -->
  <path d="M 16 2 L 16 30" fill="none" stroke="#ffffff" stroke-width="1" opacity="0.5"/>
  <path d="M 2 16 L 30 16" fill="none" stroke="#ffffff" stroke-width="1" opacity="0.5"/>
  
  <!-- Simple Meridians -->
  <path d="M 8 16 A 8 8 0 0 1 24 16" fill="none" stroke="#ffffff" stroke-width="1" opacity="0.4"/>
  <path d="M 8 16 A 8 8 0 0 0 24 16" fill="none" stroke="#ffffff" stroke-width="1" opacity="0.4"/>
</svg> 